<svg width="640" height="520" viewBox="0 0 640 520" xmlns="http://www.w3.org/2000/svg">
  <defs>
    <linearGradient id="bg" x1="0" y1="0" x2="1" y2="1">
      <stop offset="0%" stop-color="#4285F4"/>
      <stop offset="100%" stop-color="#6aa5ff"/>
    </linearGradient>
  </defs>
  <rect width="640" height="520" fill="url(#bg)"/>
  <!-- browser window -->
  <rect x="90" y="90" width="460" height="320" rx="16" fill="#FFFFFF" opacity="0.97"/>
  <rect x="90" y="90" width="460" height="40" rx="16" fill="#F1F3F4"/>
  <circle cx="114" cy="110" r="6" fill="#DB4437"/>
  <circle cx="136" cy="110" r="6" fill="#F4B400"/>
  <circle cx="158" cy="110" r="6" fill="#0F9D58"/>
  <rect x="120" y="150" width="180" height="18" rx="4" fill="#111111" opacity="0.85"/>
  <rect x="120" y="182" width="260" height="10" rx="4" fill="#666666" opacity="0.5"/>
  <rect x="120" y="200" width="220" height="10" rx="4" fill="#666666" opacity="0.5"/>
  <rect x="120" y="230" width="110" height="70" rx="10" fill="#4285F4" opacity="0.9"/>
  <rect x="245" y="230" width="110" height="70" rx="10" fill="#0F9D58" opacity="0.9"/>
  <rect x="370" y="230" width="110" height="70" rx="10" fill="#F4B400" opacity="0.9"/>
  <rect x="120" y="330" width="360" height="50" rx="10" fill="#F8F9FA" stroke="#E5E7EB"/>
  <!-- floating shapes -->
  <circle cx="540" cy="150" r="34" fill="#F4B400" opacity="0.9"/>
  <rect x="60" y="360" width="70" height="70" rx="18" fill="#DB4437" opacity="0.9"/>
  <circle cx="500" cy="420" r="24" fill="#0F9D58" opacity="0.9"/>
</svg>
